<mxfile host="app.diagrams.net" modified="2023-08-19T10:14:39.415Z" agent="Mozilla/5.0 (Windows NT 10.0; Win64; x64) AppleWebKit/537.36 (KHTML, like Gecko) Chrome/115.0.0.0 Safari/537.36" etag="meL0pMmgbCeAdPUejkzg" version="21.6.8" type="device">
  <diagram name="Page-1" id="c4acf3e9-155e-7222-9cf6-157b1a14988f">
    <mxGraphModel dx="1909" dy="5766" grid="1" gridSize="10" guides="1" tooltips="1" connect="1" arrows="1" fold="1" page="1" pageScale="1" pageWidth="3300" pageHeight="4681" background="none" math="0" shadow="0">
      <root>
        <mxCell id="0" />
        <mxCell id="1" parent="0" />
        <mxCell id="0UAAl1UUJZ5gVvPkzGdZ-87" value="" style="group" parent="1" vertex="1" connectable="0">
          <mxGeometry x="1850" y="380" width="1320" height="710" as="geometry" />
        </mxCell>
        <mxCell id="hPYqvErPqtQJg8WxiS2a-7" value="" style="group" parent="0UAAl1UUJZ5gVvPkzGdZ-87" vertex="1" connectable="0">
          <mxGeometry x="-25" y="-390" width="930" height="730" as="geometry" />
        </mxCell>
        <mxCell id="0UAAl1UUJZ5gVvPkzGdZ-88" value="&lt;h2&gt;notes&lt;/h2&gt;" style="shape=module;align=left;spacingLeft=20;align=center;verticalAlign=top;whiteSpace=wrap;html=1;" parent="hPYqvErPqtQJg8WxiS2a-7" vertex="1">
          <mxGeometry width="930" height="730" as="geometry" />
        </mxCell>
        <mxCell id="0UAAl1UUJZ5gVvPkzGdZ-91" value="Tags" style="swimlane;whiteSpace=wrap;html=1;" parent="hPYqvErPqtQJg8WxiS2a-7" vertex="1">
          <mxGeometry x="410" y="68" width="200" height="52" as="geometry" />
        </mxCell>
        <mxCell id="0UAAl1UUJZ5gVvPkzGdZ-104" value="+ tags" style="whiteSpace=wrap;html=1;align=left;" parent="0UAAl1UUJZ5gVvPkzGdZ-91" vertex="1">
          <mxGeometry y="22" width="200" height="30" as="geometry" />
        </mxCell>
        <mxCell id="0UAAl1UUJZ5gVvPkzGdZ-108" value="&lt;h2&gt;+ add_note()&lt;br&gt;+ delete_note()&lt;br&gt;+ change_note()&lt;br&gt;+ exit_notes()&lt;br&gt;+ show_notes()&lt;br&gt;+ search()&lt;br&gt;+ help_menu()&lt;br&gt;+ pars()&lt;br&gt;+ command_handler()&lt;br&gt;+ instruction()&lt;br&gt;+ notes_main()&lt;/h2&gt;" style="whiteSpace=wrap;html=1;align=left;" parent="hPYqvErPqtQJg8WxiS2a-7" vertex="1">
          <mxGeometry x="10" y="470" width="920" height="260" as="geometry" />
        </mxCell>
        <mxCell id="0UAAl1UUJZ5gVvPkzGdZ-73" value="&lt;h2&gt;address_book_classes&lt;/h2&gt;" style="shape=module;align=left;spacingLeft=20;align=center;verticalAlign=top;whiteSpace=wrap;html=1;" parent="0UAAl1UUJZ5gVvPkzGdZ-87" vertex="1">
          <mxGeometry x="-1550" y="-390" width="1510" height="660" as="geometry" />
        </mxCell>
        <mxCell id="0UAAl1UUJZ5gVvPkzGdZ-52" value="AddressBook" style="swimlane;whiteSpace=wrap;html=1;" parent="0UAAl1UUJZ5gVvPkzGdZ-87" vertex="1">
          <mxGeometry x="-695" y="-90" width="200" height="210" as="geometry" />
        </mxCell>
        <mxCell id="0UAAl1UUJZ5gVvPkzGdZ-54" value="&lt;h5 style=&quot;border-color: var(--border-color); line-height: 0%;&quot;&gt;&lt;font face=&quot;Georgia&quot; size=&quot;1&quot;&gt;+ add_record()&lt;/font&gt;&lt;/h5&gt;&lt;h5 style=&quot;border-color: var(--border-color); line-height: 0%;&quot;&gt;&lt;font face=&quot;Georgia&quot; size=&quot;1&quot;&gt;+ iterator()&lt;/font&gt;&lt;/h5&gt;&lt;h5 style=&quot;border-color: var(--border-color); line-height: 0%;&quot;&gt;&lt;font face=&quot;Georgia&quot; size=&quot;1&quot;&gt;+ serialize_to_csv()&lt;/font&gt;&lt;/h5&gt;&lt;h5 style=&quot;border-color: var(--border-color); line-height: 0%;&quot;&gt;&lt;font face=&quot;Georgia&quot; size=&quot;1&quot;&gt;+ serialize_to_json()&lt;/font&gt;&lt;/h5&gt;&lt;h5 style=&quot;border-color: var(--border-color); line-height: 0%;&quot;&gt;&lt;font face=&quot;Georgia&quot; size=&quot;1&quot;&gt;+ save()&lt;/font&gt;&lt;/h5&gt;&lt;h5 style=&quot;border-color: var(--border-color); line-height: 0%;&quot;&gt;&lt;font face=&quot;Georgia&quot; size=&quot;1&quot;&gt;+ load()&lt;/font&gt;&lt;/h5&gt;&lt;h5 style=&quot;border-color: var(--border-color); line-height: 0%;&quot;&gt;&lt;font face=&quot;Georgia&quot; size=&quot;1&quot;&gt;+ get_current_week()&lt;/font&gt;&lt;/h5&gt;&lt;h5 style=&quot;border-color: var(--border-color); line-height: 0%;&quot;&gt;&lt;font face=&quot;Georgia&quot; size=&quot;1&quot;&gt;+ get_current_week()&lt;/font&gt;&lt;/h5&gt;&lt;h5 style=&quot;border-color: var(--border-color); line-height: 0%;&quot;&gt;&lt;font face=&quot;Georgia&quot; size=&quot;1&quot;&gt;+ congratulate()&lt;/font&gt;&lt;/h5&gt;&lt;h5 style=&quot;border-color: var(--border-color); line-height: 0%;&quot;&gt;&lt;font face=&quot;Georgia&quot; size=&quot;1&quot;&gt;+ show_all_address_book()&lt;/font&gt;&lt;/h5&gt;&lt;h5 style=&quot;border-color: var(--border-color); line-height: 0%;&quot;&gt;&lt;font face=&quot;Georgia&quot; size=&quot;1&quot;&gt;+ search()&lt;/font&gt;&lt;/h5&gt;" style="whiteSpace=wrap;html=1;align=left;" parent="0UAAl1UUJZ5gVvPkzGdZ-52" vertex="1">
          <mxGeometry y="20" width="200" height="190" as="geometry" />
        </mxCell>
        <mxCell id="0UAAl1UUJZ5gVvPkzGdZ-1" value="&lt;i&gt;Feild&lt;/i&gt;" style="swimlane;whiteSpace=wrap;html=1;" parent="0UAAl1UUJZ5gVvPkzGdZ-87" vertex="1">
          <mxGeometry x="-895" y="-310" width="200" height="50" as="geometry" />
        </mxCell>
        <mxCell id="0UAAl1UUJZ5gVvPkzGdZ-3" value="+ value" style="whiteSpace=wrap;html=1;align=left;" parent="0UAAl1UUJZ5gVvPkzGdZ-87" vertex="1">
          <mxGeometry x="-895" y="-290" width="200" height="30" as="geometry" />
        </mxCell>
        <mxCell id="0UAAl1UUJZ5gVvPkzGdZ-20" style="edgeStyle=orthogonalEdgeStyle;rounded=0;orthogonalLoop=1;jettySize=auto;html=1;exitX=0.75;exitY=0;exitDx=0;exitDy=0;entryX=0.45;entryY=1;entryDx=0;entryDy=0;entryPerimeter=0;" parent="0UAAl1UUJZ5gVvPkzGdZ-87" source="0UAAl1UUJZ5gVvPkzGdZ-5" target="0UAAl1UUJZ5gVvPkzGdZ-3" edge="1">
          <mxGeometry relative="1" as="geometry" />
        </mxCell>
        <mxCell id="0UAAl1UUJZ5gVvPkzGdZ-5" value="Name" style="swimlane;whiteSpace=wrap;html=1;" parent="0UAAl1UUJZ5gVvPkzGdZ-87" vertex="1">
          <mxGeometry x="-1015" y="-220" width="200" height="50" as="geometry" />
        </mxCell>
        <mxCell id="0UAAl1UUJZ5gVvPkzGdZ-23" style="edgeStyle=orthogonalEdgeStyle;rounded=0;orthogonalLoop=1;jettySize=auto;html=1;exitX=0.75;exitY=0;exitDx=0;exitDy=0;" parent="0UAAl1UUJZ5gVvPkzGdZ-87" source="0UAAl1UUJZ5gVvPkzGdZ-6" edge="1">
          <mxGeometry relative="1" as="geometry">
            <mxPoint x="-775" y="-260" as="targetPoint" />
          </mxGeometry>
        </mxCell>
        <mxCell id="0UAAl1UUJZ5gVvPkzGdZ-6" value="Phone" style="swimlane;whiteSpace=wrap;html=1;" parent="0UAAl1UUJZ5gVvPkzGdZ-87" vertex="1">
          <mxGeometry x="-775" y="-220" width="200" height="50" as="geometry" />
        </mxCell>
        <mxCell id="0UAAl1UUJZ5gVvPkzGdZ-9" value="+ value" style="whiteSpace=wrap;html=1;align=left;" parent="0UAAl1UUJZ5gVvPkzGdZ-6" vertex="1">
          <mxGeometry y="20" width="200" height="30" as="geometry" />
        </mxCell>
        <mxCell id="0UAAl1UUJZ5gVvPkzGdZ-8" value="+ value" style="whiteSpace=wrap;html=1;align=left;" parent="0UAAl1UUJZ5gVvPkzGdZ-87" vertex="1">
          <mxGeometry x="-1015" y="-200" width="200" height="30" as="geometry" />
        </mxCell>
        <mxCell id="0UAAl1UUJZ5gVvPkzGdZ-24" style="edgeStyle=orthogonalEdgeStyle;rounded=0;orthogonalLoop=1;jettySize=auto;html=1;exitX=0.25;exitY=0;exitDx=0;exitDy=0;entryX=1;entryY=0.75;entryDx=0;entryDy=0;" parent="0UAAl1UUJZ5gVvPkzGdZ-87" source="0UAAl1UUJZ5gVvPkzGdZ-10" target="0UAAl1UUJZ5gVvPkzGdZ-1" edge="1">
          <mxGeometry relative="1" as="geometry" />
        </mxCell>
        <mxCell id="0UAAl1UUJZ5gVvPkzGdZ-10" value="Birthday" style="swimlane;whiteSpace=wrap;html=1;startSize=23;" parent="0UAAl1UUJZ5gVvPkzGdZ-87" vertex="1">
          <mxGeometry x="-535" y="-220" width="200" height="50" as="geometry" />
        </mxCell>
        <mxCell id="0UAAl1UUJZ5gVvPkzGdZ-11" value="+ value" style="whiteSpace=wrap;html=1;align=left;" parent="0UAAl1UUJZ5gVvPkzGdZ-10" vertex="1">
          <mxGeometry y="20" width="200" height="30" as="geometry" />
        </mxCell>
        <mxCell id="0UAAl1UUJZ5gVvPkzGdZ-21" style="edgeStyle=orthogonalEdgeStyle;rounded=0;orthogonalLoop=1;jettySize=auto;html=1;exitX=0.75;exitY=0;exitDx=0;exitDy=0;entryX=0.05;entryY=1;entryDx=0;entryDy=0;entryPerimeter=0;" parent="0UAAl1UUJZ5gVvPkzGdZ-87" source="0UAAl1UUJZ5gVvPkzGdZ-12" target="0UAAl1UUJZ5gVvPkzGdZ-3" edge="1">
          <mxGeometry relative="1" as="geometry" />
        </mxCell>
        <mxCell id="0UAAl1UUJZ5gVvPkzGdZ-12" value="Email" style="swimlane;whiteSpace=wrap;html=1;" parent="0UAAl1UUJZ5gVvPkzGdZ-87" vertex="1">
          <mxGeometry x="-1255" y="-220" width="200" height="50" as="geometry" />
        </mxCell>
        <mxCell id="0UAAl1UUJZ5gVvPkzGdZ-13" value="+ value" style="whiteSpace=wrap;html=1;align=left;" parent="0UAAl1UUJZ5gVvPkzGdZ-12" vertex="1">
          <mxGeometry y="20" width="200" height="30" as="geometry" />
        </mxCell>
        <mxCell id="0UAAl1UUJZ5gVvPkzGdZ-22" style="edgeStyle=orthogonalEdgeStyle;rounded=0;orthogonalLoop=1;jettySize=auto;html=1;exitX=0.75;exitY=0;exitDx=0;exitDy=0;entryX=0;entryY=0.75;entryDx=0;entryDy=0;" parent="0UAAl1UUJZ5gVvPkzGdZ-87" source="0UAAl1UUJZ5gVvPkzGdZ-14" target="0UAAl1UUJZ5gVvPkzGdZ-1" edge="1">
          <mxGeometry relative="1" as="geometry" />
        </mxCell>
        <mxCell id="0UAAl1UUJZ5gVvPkzGdZ-14" value="Note" style="swimlane;whiteSpace=wrap;html=1;" parent="0UAAl1UUJZ5gVvPkzGdZ-87" vertex="1">
          <mxGeometry x="-1495" y="-220" width="200" height="50" as="geometry" />
        </mxCell>
        <mxCell id="0UAAl1UUJZ5gVvPkzGdZ-15" value="+ value" style="whiteSpace=wrap;html=1;align=left;" parent="0UAAl1UUJZ5gVvPkzGdZ-14" vertex="1">
          <mxGeometry y="20" width="200" height="30" as="geometry" />
        </mxCell>
        <mxCell id="0UAAl1UUJZ5gVvPkzGdZ-25" style="edgeStyle=orthogonalEdgeStyle;rounded=0;orthogonalLoop=1;jettySize=auto;html=1;exitX=0.25;exitY=0;exitDx=0;exitDy=0;entryX=1.004;entryY=0.163;entryDx=0;entryDy=0;entryPerimeter=0;" parent="0UAAl1UUJZ5gVvPkzGdZ-87" source="0UAAl1UUJZ5gVvPkzGdZ-16" target="0UAAl1UUJZ5gVvPkzGdZ-1" edge="1">
          <mxGeometry relative="1" as="geometry">
            <mxPoint x="-685" y="-290" as="targetPoint" />
          </mxGeometry>
        </mxCell>
        <mxCell id="0UAAl1UUJZ5gVvPkzGdZ-16" value="Address" style="swimlane;whiteSpace=wrap;html=1;" parent="0UAAl1UUJZ5gVvPkzGdZ-87" vertex="1">
          <mxGeometry x="-295" y="-220" width="200" height="50" as="geometry" />
        </mxCell>
        <mxCell id="0UAAl1UUJZ5gVvPkzGdZ-17" value="+ value" style="whiteSpace=wrap;html=1;align=left;" parent="0UAAl1UUJZ5gVvPkzGdZ-16" vertex="1">
          <mxGeometry y="20" width="200" height="30" as="geometry" />
        </mxCell>
        <mxCell id="0UAAl1UUJZ5gVvPkzGdZ-18" value="Record" style="swimlane;whiteSpace=wrap;html=1;" parent="0UAAl1UUJZ5gVvPkzGdZ-87" vertex="1">
          <mxGeometry x="-1015" y="-140" width="200" height="220" as="geometry" />
        </mxCell>
        <mxCell id="0UAAl1UUJZ5gVvPkzGdZ-19" value="+ name&lt;br&gt;+ phones&lt;br&gt;+ birthday&lt;br&gt;+ emails&lt;br&gt;+ address&lt;br&gt;+ note" style="whiteSpace=wrap;html=1;align=left;" parent="0UAAl1UUJZ5gVvPkzGdZ-18" vertex="1">
          <mxGeometry y="20" width="200" height="100" as="geometry" />
        </mxCell>
        <mxCell id="0UAAl1UUJZ5gVvPkzGdZ-50" value="&lt;h5 style=&quot;border-color: var(--border-color); font-family: Consolas, &amp;quot;Courier New&amp;quot;, monospace;&quot;&gt;+ add_birthday()&lt;br&gt;&lt;span style=&quot;border-color: var(--border-color);&quot;&gt;+ add_phone&lt;/span&gt;()&lt;br&gt;&lt;span style=&quot;border-color: var(--border-color);&quot;&gt;+ add_email&lt;/span&gt;()&lt;br&gt;&lt;span style=&quot;border-color: var(--border-color);&quot;&gt;+ change_phone&lt;/span&gt;&lt;font style=&quot;border-color: var(--border-color);&quot;&gt;(&lt;/font&gt;&lt;font style=&quot;border-color: var(--border-color);&quot;&gt;)&lt;br&gt;&lt;/font&gt;&lt;span style=&quot;border-color: var(--border-color);&quot;&gt;+ days_to_birthday&lt;/span&gt;&lt;font style=&quot;border-color: var(--border-color);&quot;&gt;(&lt;/font&gt;&lt;font style=&quot;border-color: var(--border-color);&quot;&gt;)&lt;br&gt;&lt;/font&gt;&lt;span style=&quot;border-color: var(--border-color);&quot;&gt;+ get_phones&lt;/span&gt;&lt;span style=&quot;border-color: var(--border-color);&quot;&gt;(&lt;/span&gt;&lt;font style=&quot;border-color: var(--border-color);&quot;&gt;)&lt;br&gt;&lt;/font&gt;&lt;span style=&quot;border-color: var(--border-color);&quot;&gt;+ remove_phone&lt;/span&gt;&lt;span style=&quot;border-color: var(--border-color);&quot;&gt;(&lt;/span&gt;&lt;font style=&quot;border-color: var(--border-color);&quot;&gt;)&lt;/font&gt;&lt;/h5&gt;" style="whiteSpace=wrap;html=1;align=left;" parent="0UAAl1UUJZ5gVvPkzGdZ-18" vertex="1">
          <mxGeometry y="120" width="200" height="100" as="geometry" />
        </mxCell>
        <mxCell id="0UAAl1UUJZ5gVvPkzGdZ-31" style="edgeStyle=orthogonalEdgeStyle;rounded=0;orthogonalLoop=1;jettySize=auto;html=1;entryX=0.25;entryY=1;entryDx=0;entryDy=0;exitX=-0.063;exitY=0.506;exitDx=0;exitDy=0;exitPerimeter=0;" parent="0UAAl1UUJZ5gVvPkzGdZ-87" source="0UAAl1UUJZ5gVvPkzGdZ-30" target="0UAAl1UUJZ5gVvPkzGdZ-15" edge="1">
          <mxGeometry relative="1" as="geometry">
            <mxPoint x="-1025" y="-90" as="sourcePoint" />
          </mxGeometry>
        </mxCell>
        <mxCell id="0UAAl1UUJZ5gVvPkzGdZ-30" value="" style="rhombus;whiteSpace=wrap;html=1;fillColor=#FFFFFF;" parent="0UAAl1UUJZ5gVvPkzGdZ-87" vertex="1">
          <mxGeometry x="-1026" y="-100" width="10" height="10" as="geometry" />
        </mxCell>
        <mxCell id="0UAAl1UUJZ5gVvPkzGdZ-41" style="edgeStyle=orthogonalEdgeStyle;rounded=0;orthogonalLoop=1;jettySize=auto;html=1;exitX=0;exitY=0.5;exitDx=0;exitDy=0;entryX=0.606;entryY=1.072;entryDx=0;entryDy=0;entryPerimeter=0;" parent="0UAAl1UUJZ5gVvPkzGdZ-87" source="0UAAl1UUJZ5gVvPkzGdZ-34" target="0UAAl1UUJZ5gVvPkzGdZ-13" edge="1">
          <mxGeometry relative="1" as="geometry" />
        </mxCell>
        <mxCell id="0UAAl1UUJZ5gVvPkzGdZ-34" value="" style="rhombus;whiteSpace=wrap;html=1;fillColor=#FFFFFF;" parent="0UAAl1UUJZ5gVvPkzGdZ-87" vertex="1">
          <mxGeometry x="-1026" y="-114" width="10" height="10" as="geometry" />
        </mxCell>
        <mxCell id="0UAAl1UUJZ5gVvPkzGdZ-40" style="edgeStyle=orthogonalEdgeStyle;rounded=0;orthogonalLoop=1;jettySize=auto;html=1;exitX=0.5;exitY=0;exitDx=0;exitDy=0;entryX=0.375;entryY=1;entryDx=0;entryDy=0;entryPerimeter=0;" parent="0UAAl1UUJZ5gVvPkzGdZ-87" source="0UAAl1UUJZ5gVvPkzGdZ-35" target="0UAAl1UUJZ5gVvPkzGdZ-8" edge="1">
          <mxGeometry relative="1" as="geometry" />
        </mxCell>
        <mxCell id="0UAAl1UUJZ5gVvPkzGdZ-35" value="" style="rhombus;whiteSpace=wrap;html=1;fillColor=#000000;" parent="0UAAl1UUJZ5gVvPkzGdZ-87" vertex="1">
          <mxGeometry x="-945" y="-151" width="10" height="10" as="geometry" />
        </mxCell>
        <mxCell id="0UAAl1UUJZ5gVvPkzGdZ-42" style="edgeStyle=orthogonalEdgeStyle;rounded=0;orthogonalLoop=1;jettySize=auto;html=1;exitX=1;exitY=0.5;exitDx=0;exitDy=0;entryX=0.135;entryY=1.005;entryDx=0;entryDy=0;entryPerimeter=0;" parent="0UAAl1UUJZ5gVvPkzGdZ-87" source="0UAAl1UUJZ5gVvPkzGdZ-36" target="0UAAl1UUJZ5gVvPkzGdZ-9" edge="1">
          <mxGeometry relative="1" as="geometry" />
        </mxCell>
        <mxCell id="0UAAl1UUJZ5gVvPkzGdZ-36" value="" style="rhombus;whiteSpace=wrap;html=1;fillColor=#FFFFFF;" parent="0UAAl1UUJZ5gVvPkzGdZ-87" vertex="1">
          <mxGeometry x="-815" y="-140" width="10" height="10" as="geometry" />
        </mxCell>
        <mxCell id="0UAAl1UUJZ5gVvPkzGdZ-43" style="edgeStyle=orthogonalEdgeStyle;rounded=0;orthogonalLoop=1;jettySize=auto;html=1;exitX=1;exitY=0.5;exitDx=0;exitDy=0;entryX=0.35;entryY=1;entryDx=0;entryDy=0;entryPerimeter=0;" parent="0UAAl1UUJZ5gVvPkzGdZ-87" source="0UAAl1UUJZ5gVvPkzGdZ-37" target="0UAAl1UUJZ5gVvPkzGdZ-11" edge="1">
          <mxGeometry relative="1" as="geometry" />
        </mxCell>
        <mxCell id="0UAAl1UUJZ5gVvPkzGdZ-37" value="" style="rhombus;whiteSpace=wrap;html=1;fillColor=#FFFFFF;" parent="0UAAl1UUJZ5gVvPkzGdZ-87" vertex="1">
          <mxGeometry x="-815" y="-120" width="10" height="10" as="geometry" />
        </mxCell>
        <mxCell id="0UAAl1UUJZ5gVvPkzGdZ-44" style="edgeStyle=orthogonalEdgeStyle;rounded=0;orthogonalLoop=1;jettySize=auto;html=1;exitX=1;exitY=0.5;exitDx=0;exitDy=0;entryX=0.395;entryY=0.995;entryDx=0;entryDy=0;entryPerimeter=0;" parent="0UAAl1UUJZ5gVvPkzGdZ-87" source="0UAAl1UUJZ5gVvPkzGdZ-38" target="0UAAl1UUJZ5gVvPkzGdZ-17" edge="1">
          <mxGeometry relative="1" as="geometry" />
        </mxCell>
        <mxCell id="0UAAl1UUJZ5gVvPkzGdZ-38" value="" style="rhombus;whiteSpace=wrap;html=1;fillColor=#FFFFFF;" parent="0UAAl1UUJZ5gVvPkzGdZ-87" vertex="1">
          <mxGeometry x="-815" y="-104" width="10" height="10" as="geometry" />
        </mxCell>
        <mxCell id="0UAAl1UUJZ5gVvPkzGdZ-64" value="Use" style="endArrow=open;endSize=12;dashed=1;html=1;rounded=0;exitX=1.003;exitY=0.056;exitDx=0;exitDy=0;exitPerimeter=0;entryX=0;entryY=0.25;entryDx=0;entryDy=0;" parent="0UAAl1UUJZ5gVvPkzGdZ-87" source="0UAAl1UUJZ5gVvPkzGdZ-54" target="0UAAl1UUJZ5gVvPkzGdZ-65" edge="1">
          <mxGeometry x="0.0025" width="160" relative="1" as="geometry">
            <mxPoint x="-1445" y="90" as="sourcePoint" />
            <mxPoint x="-415" as="targetPoint" />
            <mxPoint as="offset" />
          </mxGeometry>
        </mxCell>
        <mxCell id="0UAAl1UUJZ5gVvPkzGdZ-65" value="&lt;i&gt;UserDict&lt;/i&gt;" style="swimlane;whiteSpace=wrap;html=1;" parent="0UAAl1UUJZ5gVvPkzGdZ-87" vertex="1">
          <mxGeometry x="-405" y="-70" width="120" height="40" as="geometry" />
        </mxCell>
        <mxCell id="0UAAl1UUJZ5gVvPkzGdZ-79" value="" style="group" parent="0UAAl1UUJZ5gVvPkzGdZ-87" vertex="1" connectable="0">
          <mxGeometry x="-905" y="520" width="360" height="100" as="geometry" />
        </mxCell>
        <mxCell id="0UAAl1UUJZ5gVvPkzGdZ-77" value="&lt;h2&gt;main_menu&lt;/h2&gt;" style="shape=module;align=left;spacingLeft=20;align=center;verticalAlign=top;whiteSpace=wrap;html=1;" parent="0UAAl1UUJZ5gVvPkzGdZ-79" vertex="1">
          <mxGeometry width="360" height="100" as="geometry" />
        </mxCell>
        <mxCell id="0UAAl1UUJZ5gVvPkzGdZ-78" value="&lt;h3&gt;+ main()&lt;/h3&gt;" style="whiteSpace=wrap;html=1;align=left;" parent="0UAAl1UUJZ5gVvPkzGdZ-79" vertex="1">
          <mxGeometry x="10" y="70" width="350" height="30" as="geometry" />
        </mxCell>
        <mxCell id="0UAAl1UUJZ5gVvPkzGdZ-80" value="" style="group" parent="0UAAl1UUJZ5gVvPkzGdZ-87" vertex="1" connectable="0">
          <mxGeometry x="-1545" y="380" width="360" height="330" as="geometry" />
        </mxCell>
        <mxCell id="0UAAl1UUJZ5gVvPkzGdZ-74" value="&lt;h2&gt;addressbook&lt;/h2&gt;" style="shape=module;align=left;spacingLeft=20;align=center;verticalAlign=top;whiteSpace=wrap;html=1;" parent="0UAAl1UUJZ5gVvPkzGdZ-80" vertex="1">
          <mxGeometry width="360" height="330" as="geometry" />
        </mxCell>
        <mxCell id="0UAAl1UUJZ5gVvPkzGdZ-75" value="&lt;h3&gt;+ input_errors()&lt;br&gt;+ add()&lt;br&gt;+ edit_contacts()&lt;br&gt;+ delete_record()&lt;br&gt;+ remove_phone()&lt;br&gt;+ search()&lt;br&gt;+ get_days_to_birthday()&lt;br&gt;+ who_has_bd_n_days()&lt;br&gt;+ exit_book()&lt;br&gt;+&lt;span style=&quot;background-color: initial; border-color: var(--border-color); font-size: 12px; font-weight: normal;&quot;&gt;&amp;nbsp;&lt;/span&gt;help()&lt;br&gt;+&lt;span style=&quot;background-color: initial; font-size: 12px; font-weight: normal;&quot;&gt;&amp;nbsp;&lt;/span&gt;command_handler()&lt;br&gt;+&lt;span style=&quot;background-color: initial; font-size: 12px; font-weight: normal;&quot;&gt;&amp;nbsp;&lt;/span&gt;instruction()&lt;br&gt;+&lt;span style=&quot;background-color: initial; font-size: 12px; font-weight: normal;&quot;&gt;&amp;nbsp;&lt;/span&gt;parser_input()&lt;br&gt;+ addressbook_starter()&lt;/h3&gt;" style="whiteSpace=wrap;html=1;align=left;" parent="0UAAl1UUJZ5gVvPkzGdZ-80" vertex="1">
          <mxGeometry x="10" y="79.2" width="350" height="250.79999999999998" as="geometry" />
        </mxCell>
        <mxCell id="0UAAl1UUJZ5gVvPkzGdZ-81" value="" style="group" parent="0UAAl1UUJZ5gVvPkzGdZ-87" vertex="1" connectable="0">
          <mxGeometry x="535" y="480" width="360" height="100" as="geometry" />
        </mxCell>
        <mxCell id="0UAAl1UUJZ5gVvPkzGdZ-82" value="&lt;h2&gt;normalize&lt;/h2&gt;" style="shape=module;align=left;spacingLeft=20;align=center;verticalAlign=top;whiteSpace=wrap;html=1;" parent="0UAAl1UUJZ5gVvPkzGdZ-81" vertex="1">
          <mxGeometry width="360" height="100" as="geometry" />
        </mxCell>
        <mxCell id="0UAAl1UUJZ5gVvPkzGdZ-83" value="&lt;h3&gt;+ normalize()&lt;/h3&gt;" style="whiteSpace=wrap;html=1;align=left;" parent="0UAAl1UUJZ5gVvPkzGdZ-81" vertex="1">
          <mxGeometry x="10" y="70" width="350" height="30" as="geometry" />
        </mxCell>
        <mxCell id="0UAAl1UUJZ5gVvPkzGdZ-90" value="Tag" style="swimlane;whiteSpace=wrap;html=1;" parent="0UAAl1UUJZ5gVvPkzGdZ-87" vertex="1">
          <mxGeometry x="86" y="-320" width="200" height="50" as="geometry" />
        </mxCell>
        <mxCell id="0UAAl1UUJZ5gVvPkzGdZ-92" value="Note" style="swimlane;whiteSpace=wrap;html=1;" parent="0UAAl1UUJZ5gVvPkzGdZ-87" vertex="1">
          <mxGeometry x="625" y="-321" width="200" height="51" as="geometry" />
        </mxCell>
        <mxCell id="0UAAl1UUJZ5gVvPkzGdZ-105" value="+ note_text" style="whiteSpace=wrap;html=1;align=left;" parent="0UAAl1UUJZ5gVvPkzGdZ-92" vertex="1">
          <mxGeometry y="21" width="200" height="30" as="geometry" />
        </mxCell>
        <mxCell id="0UAAl1UUJZ5gVvPkzGdZ-93" value="NoteBook" style="swimlane;whiteSpace=wrap;html=1;" parent="0UAAl1UUJZ5gVvPkzGdZ-87" vertex="1">
          <mxGeometry x="385" y="-200" width="200" height="140" as="geometry" />
        </mxCell>
        <mxCell id="0UAAl1UUJZ5gVvPkzGdZ-107" value="&lt;div&gt;+ add_note()&lt;/div&gt;&lt;div&gt;+ save()&lt;/div&gt;&lt;div&gt;+ load()&lt;/div&gt;&lt;div&gt;+ show_notes()&lt;/div&gt;&lt;div&gt;+ edit_note()&lt;/div&gt;&lt;div&gt;+ search_note()&lt;/div&gt;&lt;div&gt;+ search_tag()&lt;/div&gt;" style="whiteSpace=wrap;html=1;align=left;" parent="0UAAl1UUJZ5gVvPkzGdZ-93" vertex="1">
          <mxGeometry y="20" width="200" height="120" as="geometry" />
        </mxCell>
        <mxCell id="0UAAl1UUJZ5gVvPkzGdZ-94" value="&lt;i&gt;UserDict&lt;/i&gt;" style="swimlane;whiteSpace=wrap;html=1;" parent="0UAAl1UUJZ5gVvPkzGdZ-87" vertex="1">
          <mxGeometry x="665" y="-200" width="200" height="50" as="geometry" />
        </mxCell>
        <mxCell id="0UAAl1UUJZ5gVvPkzGdZ-103" value="+ value" style="whiteSpace=wrap;html=1;align=left;" parent="0UAAl1UUJZ5gVvPkzGdZ-87" vertex="1">
          <mxGeometry x="86" y="-300" width="200" height="30" as="geometry" />
        </mxCell>
        <mxCell id="0UAAl1UUJZ5gVvPkzGdZ-106" value="Use" style="endArrow=open;endSize=12;dashed=1;html=1;rounded=0;entryX=0;entryY=0.5;entryDx=0;entryDy=0;exitX=1;exitY=0.5;exitDx=0;exitDy=0;" parent="0UAAl1UUJZ5gVvPkzGdZ-87" source="0UAAl1UUJZ5gVvPkzGdZ-93" target="0UAAl1UUJZ5gVvPkzGdZ-94" edge="1">
          <mxGeometry width="160" relative="1" as="geometry">
            <mxPoint x="625" y="-175.29000000000002" as="sourcePoint" />
            <mxPoint x="785" y="-175.29000000000002" as="targetPoint" />
          </mxGeometry>
        </mxCell>
        <mxCell id="0UAAl1UUJZ5gVvPkzGdZ-110" value="&lt;h2&gt;sort&lt;/h2&gt;" style="shape=module;align=left;spacingLeft=20;align=center;verticalAlign=top;whiteSpace=wrap;html=1;" parent="0UAAl1UUJZ5gVvPkzGdZ-87" vertex="1">
          <mxGeometry x="15" y="380" width="360" height="100" as="geometry" />
        </mxCell>
        <mxCell id="0UAAl1UUJZ5gVvPkzGdZ-111" value="&lt;h2 style=&quot;line-height: 100%;&quot;&gt;&lt;font style=&quot;font-size: 16px;&quot; face=&quot;Verdana&quot;&gt;move_file()&lt;br&gt;&lt;span style=&quot;font-size: 14.04px;&quot;&gt;unpack_archive()&lt;br&gt;&lt;/span&gt;&lt;span style=&quot;font-size: 14.04px;&quot;&gt;delete_empty_folder()&lt;br&gt;&lt;/span&gt;&lt;span style=&quot;font-size: 14.04px;&quot;&gt;get_categories()&lt;br&gt;&lt;/span&gt;&lt;span style=&quot;font-size: 14.04px;&quot;&gt;sort_folder()&lt;br&gt;&lt;/span&gt;&lt;span style=&quot;font-size: 14.04px;&quot;&gt;files_sorter()&lt;br&gt;&lt;/span&gt;&lt;span style=&quot;font-size: 14.04px;&quot;&gt;sorter_starter()&lt;/span&gt;&lt;/font&gt;&lt;/h2&gt;" style="whiteSpace=wrap;html=1;align=left;" parent="0UAAl1UUJZ5gVvPkzGdZ-87" vertex="1">
          <mxGeometry x="25" y="450" width="350" height="190" as="geometry" />
        </mxCell>
        <mxCell id="0UAAl1UUJZ5gVvPkzGdZ-114" value="import" style="endArrow=open;endSize=12;dashed=1;html=1;rounded=0;exitX=1.001;exitY=0.415;exitDx=0;exitDy=0;exitPerimeter=0;" parent="0UAAl1UUJZ5gVvPkzGdZ-87" source="0UAAl1UUJZ5gVvPkzGdZ-111" edge="1">
          <mxGeometry width="160" relative="1" as="geometry">
            <mxPoint x="385" y="529.38" as="sourcePoint" />
            <mxPoint x="545" y="529.38" as="targetPoint" />
          </mxGeometry>
        </mxCell>
        <mxCell id="0UAAl1UUJZ5gVvPkzGdZ-116" value="import" style="endArrow=open;endSize=12;dashed=1;html=1;rounded=0;exitX=1.001;exitY=0.415;exitDx=0;exitDy=0;exitPerimeter=0;entryX=-0.015;entryY=0.62;entryDx=0;entryDy=0;entryPerimeter=0;" parent="0UAAl1UUJZ5gVvPkzGdZ-87" target="0UAAl1UUJZ5gVvPkzGdZ-111" edge="1">
          <mxGeometry width="160" relative="1" as="geometry">
            <mxPoint x="-545" y="569.4699999999999" as="sourcePoint" />
            <mxPoint x="-375" y="569.85" as="targetPoint" />
          </mxGeometry>
        </mxCell>
        <mxCell id="0UAAl1UUJZ5gVvPkzGdZ-117" value="import" style="endArrow=open;endSize=12;dashed=1;html=1;rounded=0;exitX=0;exitY=0;exitDx=0;exitDy=0;entryX=0.998;entryY=0.522;entryDx=0;entryDy=0;entryPerimeter=0;" parent="0UAAl1UUJZ5gVvPkzGdZ-87" source="0UAAl1UUJZ5gVvPkzGdZ-78" target="0UAAl1UUJZ5gVvPkzGdZ-75" edge="1">
          <mxGeometry width="160" relative="1" as="geometry">
            <mxPoint x="-855" y="680" as="sourcePoint" />
            <mxPoint x="-685" y="680.3800000000001" as="targetPoint" />
          </mxGeometry>
        </mxCell>
        <mxCell id="0UAAl1UUJZ5gVvPkzGdZ-118" value="import" style="endArrow=open;endSize=12;dashed=1;html=1;rounded=0;entryX=0;entryY=1;entryDx=10;entryDy=0;entryPerimeter=0;" parent="0UAAl1UUJZ5gVvPkzGdZ-87" target="0UAAl1UUJZ5gVvPkzGdZ-88" edge="1">
          <mxGeometry width="160" relative="1" as="geometry">
            <mxPoint x="-675" y="450" as="sourcePoint" />
            <mxPoint x="-110" y="450" as="targetPoint" />
          </mxGeometry>
        </mxCell>
        <mxCell id="0UAAl1UUJZ5gVvPkzGdZ-119" value="" style="endArrow=none;dashed=1;html=1;dashPattern=1 3;strokeWidth=2;rounded=0;entryX=0.638;entryY=-0.006;entryDx=0;entryDy=0;entryPerimeter=0;" parent="0UAAl1UUJZ5gVvPkzGdZ-87" target="0UAAl1UUJZ5gVvPkzGdZ-77" edge="1">
          <mxGeometry width="50" height="50" relative="1" as="geometry">
            <mxPoint x="-675" y="450" as="sourcePoint" />
            <mxPoint x="-445" y="280" as="targetPoint" />
          </mxGeometry>
        </mxCell>
        <mxCell id="0UAAl1UUJZ5gVvPkzGdZ-120" value="1..." style="endArrow=open;html=1;endSize=12;startArrow=diamondThin;startSize=14;startFill=1;edgeStyle=orthogonalEdgeStyle;align=left;verticalAlign=bottom;rounded=0;exitX=1;exitY=0;exitDx=0;exitDy=0;" parent="0UAAl1UUJZ5gVvPkzGdZ-87" source="0UAAl1UUJZ5gVvPkzGdZ-93" edge="1">
          <mxGeometry x="-0.9003" y="-10" relative="1" as="geometry">
            <mxPoint x="555" y="-230" as="sourcePoint" />
            <mxPoint x="715" y="-270" as="targetPoint" />
            <mxPoint as="offset" />
          </mxGeometry>
        </mxCell>
        <mxCell id="rNGoxS4xAu7CS9V2Idy0-1" value="0..." style="endArrow=open;html=1;endSize=12;startArrow=diamondThin;startSize=14;startFill=0;edgeStyle=orthogonalEdgeStyle;align=left;verticalAlign=bottom;rounded=0;exitX=0;exitY=0.5;exitDx=0;exitDy=0;entryX=1;entryY=0.5;entryDx=0;entryDy=0;" parent="0UAAl1UUJZ5gVvPkzGdZ-87" source="0UAAl1UUJZ5gVvPkzGdZ-105" target="0UAAl1UUJZ5gVvPkzGdZ-104" edge="1">
          <mxGeometry y="-5" relative="1" as="geometry">
            <mxPoint x="475" y="-220" as="sourcePoint" />
            <mxPoint x="635" y="-220" as="targetPoint" />
            <mxPoint as="offset" />
          </mxGeometry>
        </mxCell>
        <mxCell id="rNGoxS4xAu7CS9V2Idy0-3" value="1..." style="endArrow=open;html=1;endSize=12;startArrow=diamondThin;startSize=14;startFill=1;edgeStyle=orthogonalEdgeStyle;align=left;verticalAlign=bottom;rounded=0;exitX=0;exitY=0.5;exitDx=0;exitDy=0;entryX=1;entryY=0.5;entryDx=0;entryDy=0;" parent="0UAAl1UUJZ5gVvPkzGdZ-87" source="0UAAl1UUJZ5gVvPkzGdZ-104" target="0UAAl1UUJZ5gVvPkzGdZ-103" edge="1">
          <mxGeometry x="-0.596" y="-5" relative="1" as="geometry">
            <mxPoint x="245" y="-350" as="sourcePoint" />
            <mxPoint x="405" y="-350" as="targetPoint" />
            <mxPoint as="offset" />
          </mxGeometry>
        </mxCell>
        <mxCell id="rNGoxS4xAu7CS9V2Idy0-4" value="import" style="endArrow=open;endSize=12;dashed=1;html=1;rounded=0;exitX=0.442;exitY=0.006;exitDx=0;exitDy=0;entryX=0.109;entryY=1.003;entryDx=0;entryDy=0;entryPerimeter=0;exitPerimeter=0;" parent="0UAAl1UUJZ5gVvPkzGdZ-87" source="0UAAl1UUJZ5gVvPkzGdZ-74" target="0UAAl1UUJZ5gVvPkzGdZ-73" edge="1">
          <mxGeometry width="160" relative="1" as="geometry">
            <mxPoint x="-1094" y="310" as="sourcePoint" />
            <mxPoint x="-1385" y="310" as="targetPoint" />
          </mxGeometry>
        </mxCell>
        <mxCell id="hPYqvErPqtQJg8WxiS2a-6" style="edgeStyle=none;curved=1;rounded=0;orthogonalLoop=1;jettySize=auto;html=1;exitX=0;exitY=0.5;exitDx=0;exitDy=0;entryX=1;entryY=0.149;entryDx=0;entryDy=0;entryPerimeter=0;fontSize=12;startSize=8;endSize=8;" parent="0UAAl1UUJZ5gVvPkzGdZ-87" source="rNGoxS4xAu7CS9V2Idy0-5" target="0UAAl1UUJZ5gVvPkzGdZ-50" edge="1">
          <mxGeometry relative="1" as="geometry" />
        </mxCell>
        <mxCell id="rNGoxS4xAu7CS9V2Idy0-5" value="" style="rhombus;whiteSpace=wrap;html=1;fillColor=#000000;" parent="0UAAl1UUJZ5gVvPkzGdZ-87" vertex="1">
          <mxGeometry x="-706" y="-10" width="10" height="10" as="geometry" />
        </mxCell>
      </root>
    </mxGraphModel>
  </diagram>
</mxfile>
